Coordinates
version=1
nRows=16
nColumns=40
inDegrees=yes

Units are S.I. units (second, meters, Newtons, ...)
Angles are in degrees.

endheader
time	pelvis_tilt	pelvis_list	pelvis_rotation	pelvis_tx	pelvis_ty	pelvis_tz	hip_flexion_r	hip_adduction_r	hip_rotation_r	knee_angle_r	knee_angle_r_beta	ankle_angle_r	subtalar_angle_r	mtp_angle_r	hip_flexion_l	hip_adduction_l	hip_rotation_l	knee_angle_l	knee_angle_l_beta	ankle_angle_l	subtalar_angle_l	mtp_angle_l	lumbar_extension	lumbar_bending	lumbar_rotation	arm_flex_r	arm_add_r	arm_rot_r	elbow_flex_r	pro_sup_r	wrist_flex_r	wrist_dev_r	arm_flex_l	arm_add_l	arm_rot_l	elbow_flex_l	pro_sup_l	wrist_flex_l	wrist_dev_l
     14.84000000	     -5.92281555	     -4.94064506	     -0.13033418	      0.99760454	      0.91894751	      0.42072354	     16.38391355	     -4.95796734	     -0.33523588	     45.90647017	     45.90647017	      9.68985885	      1.60167986	    -15.07535741	     23.90158752	     -4.87319553	     -0.93206740	     30.44926081	     30.44926081	     14.58614998	    -16.14537924	      5.92678113	    -10.02615766	      5.57403518	      4.55771523	     29.05848959	    -13.24990145	     -0.38113218	     46.09226182	     45.61326012	      0.00000000	      0.00000000	     21.22731233	    -15.52905275	      4.07886513	     46.77643750	     45.85464102	      0.00000000	      0.00000000
     14.86192857	     -5.62084449	     -4.91543508	     -0.40429565	      0.99701966	      0.91709650	      0.41805674	     18.45997994	     -4.72953883	      0.43210994	     50.11039374	     50.11039374	      8.50838712	     -1.30851996	    -14.52660974	     23.86525472	     -4.70595982	     -0.95370802	     31.61768826	     31.61768826	     15.33704625	    -16.60906369	      5.86173577	    -10.19047673	      5.78444386	      4.44150061	     24.50315836	    -13.28480566	      0.03614470	     43.35334712	     45.66824194	      0.00000000	      0.00000000	     23.02978919	    -15.72083402	      3.54759242	     48.32067615	     45.94799041	      0.00000000	      0.00000000
     14.88385714	     -5.27260591	     -4.92921542	     -0.68493356	      0.99644856	      0.91515556	      0.41544820	     20.37207534	     -4.39496210	      1.12883518	     53.98419719	     53.98419719	      7.54846487	     -3.99402999	    -12.97214259	     23.79631122	     -4.57479715	     -0.94665415	     32.85255745	     32.85255745	     16.24293925	    -17.05139560	      6.07263303	    -10.47677181	      6.04397568	      4.46181189	     19.90285568	    -13.37196042	      0.42900285	     40.30145186	     45.73581729	      0.00000000	      0.00000000	     24.76694503	    -15.90956181	      2.81239313	     50.69299897	     46.07087298	      0.00000000	      0.00000000
     14.90578571	     -4.96606973	     -4.82109699	     -1.00532973	      0.99578693	      0.91309123	      0.41292791	     22.34585824	     -4.26216712	      1.66342142	     57.74593347	     57.74593347	      8.15924336	     -5.20187294	     -7.24179231	     23.80456282	     -4.30263050	     -0.95792537	     34.20136750	     34.20136750	     17.77169062	    -17.27148049	      7.88472768	    -10.75097432	      6.21112248	      3.62166825	     16.54101510	    -12.75604208	      0.84306190	     35.42617215	     45.88109588	      0.00000000	      0.00000000	     25.47050209	    -16.77793911	      1.09975119	     54.66075047	     46.33121167	      0.00000000	      0.00000000
     14.92771429	     -4.68857353	     -4.77765717	     -1.36028272	      0.99517774	      0.91121705	      0.41082324	     23.94517256	     -3.98308516	      2.14465291	     60.36268747	     60.36268747	      7.34361005	     -7.36467537	     -6.22533369	     23.67460096	     -4.16433392	     -1.09161945	     35.19095723	     35.19095723	     18.41477136	    -17.68277883	      7.75472116	    -11.00303284	      6.45237183	      3.83809261	     11.96884222	    -12.88627806	      1.06846791	     32.87891640	     45.93622439	      0.00000000	      0.00000000	     27.47161217	    -16.95637424	      0.46394554	     56.62870183	     46.43585108	      0.00000000	      0.00000000
     14.94964286	     -4.30244336	     -4.74777375	     -1.74443418	      0.99451278	      0.90985523	      0.40913154	     25.23603083	     -3.77040809	      2.45146748	     62.31053224	     62.31053224	      7.38067815	     -8.67862973	     -3.69032961	     23.36792957	     -4.08237766	     -1.29346255	     36.09034728	     36.09034728	     19.35016516	    -17.84590518	      8.30289612	    -11.50036464	      6.66802643	      3.89763227	      8.06084702	    -12.73035750	      1.09655769	     29.84341794	     46.03284592	      0.00000000	      0.00000000	     29.18511110	    -17.32567800	     -0.48510615	     59.49943745	     46.58680669	      0.00000000	      0.00000000
     14.97157143	     -4.19836191	     -4.72451739	     -2.22460708	      0.99376108	      0.90870334	      0.40798582	     26.56669775	     -3.51492110	      2.75784640	     63.31753934	     63.31753934	      7.18481800	    -10.11517273	     -2.64102029	     23.18247616	     -4.04871477	     -1.52731919	     36.63027106	     36.63027106	     19.94426094	    -18.08076319	      8.46113444	    -11.55771232	      6.94512908	      3.88444105	      4.13956482	    -12.67622725	      1.13015738	     27.73068081	     46.08915128	      0.00000000	      0.00000000	     30.71590948	    -17.84269544	     -1.24281137	     61.57639066	     46.69557220	      0.00000000	      0.00000000
     14.99350000	     -4.05403586	     -4.69756692	     -2.76895045	      0.99293491	      0.90830866	      0.40744875	     27.60648685	     -3.38239533	      2.85813133	     63.43903497	     63.43903497	      7.33226339	    -11.13086123	     -1.82245993	     22.78877042	     -4.08275481	     -1.88155976	     36.87175556	     36.87175556	     20.44108268	    -18.17887652	      8.75413653	    -11.75496588	      7.16170259	      3.85608894	      0.58184618	    -12.51496175	      1.08381365	     25.95874187	     46.14151608	      0.00000000	      0.00000000	     32.16269797	    -18.48273559	     -2.13639162	     63.94921086	     46.81699698	      0.00000000	      0.00000000
     15.01542857	     -4.03592382	     -4.67733546	     -3.32215336	      0.99193892	      0.90858741	      0.40740749	     28.51006195	     -3.39138629	      2.73511050	     62.59978421	     62.59978421	      7.56478015	    -11.55885303	     -1.65100036	     22.35016346	     -4.16457693	     -2.30980494	     36.72544982	     36.72544982	     20.71288769	    -18.26812730	      8.83046422	    -11.73145571	      7.38881356	      3.26680914	     -2.45711288	    -12.38705686	      1.07170828	     24.82980225	     46.16354763	      0.00000000	      0.00000000	     33.55558408	    -19.78226063	     -2.83049056	     64.92229294	     46.89537822	      0.00000000	      0.00000000
     15.03735714	     -4.13647266	     -4.70175792	     -4.06941662	      0.99078198	      0.90954102	      0.40827489	     29.29854129	     -3.17687179	      2.77782032	     60.86754401	     60.86754401	      7.78176100	    -12.28786239	     -1.75025941	     21.86699615	     -4.41133158	     -2.92013485	     36.32028401	     36.32028401	     21.06696565	    -18.19333533	      9.52754849	    -11.87109836	      7.51125622	      3.13577417	     -5.49290481	    -12.21664473	      0.33284015	     24.31727856	     46.23885305	      0.00000000	      0.00000000	     33.48731221	    -20.37873161	     -5.16785125	     70.72836903	     47.17520929	      0.00000000	      0.00000000
     15.05928571	     -4.31616652	     -4.73194646	     -4.83212699	      0.98950047	      0.91124481	      0.40968713	     29.81104365	     -3.06605254	      2.59921191	     58.12872230	     58.12872230	      7.83154618	    -12.57500303	     -2.97520587	     21.24134259	     -4.70204237	     -3.60085286	     35.45042955	     35.45042955	     20.95638004	    -18.13526749	      9.53261407	    -11.83105850	      7.65670553	      2.94203259	     -8.06808216	    -12.11327901	     -0.07290317	     23.92206997	     46.28390555	      0.00000000	      0.00000000	     34.20211160	    -21.20687483	     -6.72092535	     73.53766105	     47.35664873	      0.00000000	      0.00000000
     15.08121429	     -4.57595387	     -4.80524431	     -5.64235534	      0.98809918	      0.91348071	      0.41172869	     30.06557330	     -2.92678350	      2.29138784	     54.51335163	     54.51335163	      7.69518427	    -12.40707361	     -4.97950734	     20.51247177	     -5.08899836	     -4.37048606	     34.23400814	     34.23400814	     20.56897328	    -18.04008532	      9.14903203	    -11.73916560	      7.81009021	      2.72093520	    -10.48638000	    -12.07074137	     -0.54673811	     24.41203783	     46.29349376	      0.00000000	      0.00000000	     34.74178282	    -22.12191143	     -8.17132840	     76.43419061	     47.53344045	      0.00000000	      0.00000000
     15.10314286	     -4.86169889	     -4.88187564	     -6.49430086	      0.98659875	      0.91619521	      0.41436866	     30.06163945	     -2.76087191	      1.89305260	     50.29264128	     50.29264128	      8.09903831	    -11.24648584	     -5.19634945	     19.67903609	     -5.49174656	     -5.15620003	     32.79490953	     32.79490953	     20.28989928	    -17.86574450	      9.33337030	    -11.60406684	      7.91126776	      2.93214925	    -12.39759523	    -11.98917726	     -0.62186184	     24.14212923	     46.29394462	      0.00000000	      0.00000000	     35.84607990	    -22.78802294	     -8.79474493	     77.96621426	     47.61459837	      0.00000000	      0.00000000
     15.12507143	     -5.27860984	     -4.95188296	     -7.34039498	      0.98499480	      0.91879654	      0.41748213	     29.87185011	     -2.58318717	      1.35699719	     45.46328236	     45.46328236	      7.89675125	     -9.63324707	     -6.78365186	     18.89467227	     -5.94476673	     -6.07928022	     31.15171667	     31.15171667	     19.43380976	    -17.72517653	      8.32409768	    -11.42132547	      8.00953612	      2.70722734	    -14.41841753	    -12.00137294	     -1.23171670	     26.08592893	     46.23784597	      0.00000000	      0.00000000	     36.03496631	    -23.59861358	    -10.39038383	     81.40786779	     47.80362674	      0.00000000	      0.00000000
     15.14700000	     -5.69214923	     -5.05642577	     -8.11372941	      0.98340870	      0.92150534	      0.42104652	     29.36230624	     -2.26067620	      0.82207809	     40.27805462	     40.27805462	      7.91507237	     -7.45622362	     -6.38441117	     18.09231381	     -6.40845248	     -6.87912594	     29.52273309	     29.52273309	     19.05899407	    -17.37135822	      8.52680624	    -11.11480402	      8.15231028	      2.82790287	    -15.52275394	    -11.89466942	     -1.29034522	     26.16461367	     46.22740328	      0.00000000	      0.00000000	     36.91124102	    -24.16673194	    -10.80316947	     82.50244148	     47.86026771	      0.00000000	      0.00000000
     15.16892857	     -5.97235643	     -4.94070270	     -8.86809185	      0.98198702	      0.92383337	      0.42489005	     28.64562400	     -2.31714247	     -0.10274609	     35.23041136	     35.23041136	      7.93347480	     -3.64450459	     -5.90056455	     17.10986886	     -6.62051779	     -7.80374813	     27.78728669	     27.78728669	     18.32630879	    -17.07029640	      7.73446651	    -11.03716784	      7.94412188	      2.86778151	    -16.70013759	    -11.80116731	     -1.69658313	     27.87916140	     46.16760495	      0.00000000	      0.00000000	     37.41972839	    -24.64895434	    -11.74650990	     85.22727658	     47.98783589	      0.00000000	      0.00000000
